<?xml version="1.0" encoding="UTF-8" standalone="no"?>
<!DOCTYPE svg PUBLIC "-//W3C//DTD SVG 1.1//EN" "http://www.w3.org/Graphics/SVG/1.1/DTD/svg11.dtd">
<svg width="100%" height="100%" viewBox="0 0 660 660" version="1.1" xmlns="http://www.w3.org/2000/svg" xmlns:xlink="http://www.w3.org/1999/xlink" xml:space="preserve" xmlns:serif="http://www.serif.com/" style="fill-rule:evenodd;clip-rule:evenodd;stroke-linejoin:round;stroke-miterlimit:1.41421;">
    <g id="Robot" transform="matrix(2.62386,0,0,2.62386,63.3337,-19.875)">
        <g id="Head">
            <g id="Head-Rect" serif:id="Head Rect" transform="matrix(1,0,0,1,2.57572e-14,-87.8092)">
                <path d="M27.359,118.251L175.904,118.251L175.904,198.477L27.359,198.671L43.831,182.443L159.94,181.949C159.94,181.949 159.304,134.933 159.304,135C159.304,135.067 44.012,135 44.012,135L43.831,182.443L27.359,198.671L27.359,118.251Z" style="fill:white;"/>
                <path d="M175.904,198.477L27.359,198.671L43.831,182.443L159.94,181.949L159.622,158.45L159.403,142.308L159.331,136.998L159.304,135L159.302,135L159.298,135.001L159.283,135.002L159.22,135.003L159.117,135.004L158.973,135.006L158.79,135.007L158.567,135.009L158.009,135.011L157.302,135.013L156.454,135.015L155.468,135.017L154.35,135.019L153.105,135.021L151.739,135.022L148.664,135.025L145.167,135.027L141.289,135.028L137.074,135.029L132.564,135.03L127.8,135.03L122.825,135.029L117.681,135.029L112.41,135.028L101.658,135.025L90.905,135.022L80.491,135.018L70.752,135.014L62.026,135.009L48.966,135.003L44.012,135L43.831,182.443L27.359,198.671L27.359,118.251L175.904,118.251L175.904,198.477ZM33.457,124.349L33.457,184.103L35.726,181.867L37.743,179.88L37.914,134.977L38.072,133.623L38.526,132.338L39.254,131.187L40.219,130.225L41.374,129.502L42.661,129.054L44.015,128.902L48.969,128.905L62.029,128.912L70.755,128.916L80.493,128.92L90.908,128.924L101.66,128.927L112.411,128.93L117.682,128.931L122.825,128.932L127.8,128.932L132.563,128.932L137.073,128.931L141.287,128.93L145.164,128.929L148.66,128.927L151.733,128.925L153.098,128.923L154.341,128.921L155.457,128.92L156.44,128.918L157.285,128.916L157.985,128.913L158.536,128.911L158.749,128.91L158.921,128.908L159.044,128.907L159.104,128.906L159.061,128.907L158.944,128.913L160.345,128.992L161.692,129.389L162.913,130.085L163.942,131.042L164.725,132.208L165.22,133.523L165.401,134.917L165.428,136.915L165.5,142.225L165.719,158.367L166.037,181.867L165.901,183.234L165.462,184.535L164.744,185.706L163.781,186.686L162.624,187.425L161.33,187.887L159.966,188.047L46.341,188.53L42.257,192.553L169.806,192.387L169.806,124.349L33.457,124.349ZM158.853,128.917L158.122,128.989L157.558,129.157L158.941,128.913L158.853,128.917Z" style="fill:white;"/>
            </g>
            <g id="Left-Eye" serif:id="Left Eye" transform="matrix(1,0,0,1,0.665465,-0.0936451)">
                <ellipse cx="73.82" cy="69.467" rx="8.582" ry="8.362" style="fill:white;"/>
                <path d="M73.875,61.105L73.931,61.106L73.986,61.107L74.041,61.108L74.096,61.11L74.151,61.111L74.206,61.114L74.261,61.116L74.316,61.119L74.371,61.122L74.425,61.126L74.48,61.13L74.534,61.134L74.588,61.138L74.643,61.143L74.697,61.148L74.751,61.154L74.805,61.16L74.858,61.166L74.912,61.173L74.966,61.179L75.019,61.186L75.073,61.194L75.126,61.202L75.179,61.21L75.232,61.218L75.285,61.227L75.338,61.236L75.391,61.245L75.443,61.255L75.496,61.265L75.548,61.275L75.601,61.286L75.653,61.297L75.705,61.308L75.757,61.32L75.809,61.331L75.86,61.344L75.912,61.356L75.964,61.369L76.015,61.382L76.066,61.395L76.117,61.409L76.168,61.423L76.219,61.437L76.27,61.452L76.32,61.466L76.371,61.481L76.421,61.497L76.471,61.513L76.521,61.529L76.571,61.545L76.621,61.562L76.67,61.578L76.72,61.596L76.769,61.613L76.819,61.631L76.868,61.649L76.917,61.667L76.965,61.686L77.014,61.705L77.062,61.724L77.111,61.743L77.159,61.763L77.207,61.783L77.255,61.803L77.303,61.824L77.35,61.844L77.398,61.865L77.445,61.887L77.492,61.908L77.539,61.93L77.586,61.953L77.633,61.975L77.679,61.998L77.725,62.021L77.772,62.044L77.818,62.067L77.863,62.091L77.909,62.115L77.955,62.139L78,62.164L78.045,62.189L78.09,62.214L78.135,62.239L78.18,62.265L78.224,62.29L78.269,62.317L78.313,62.343L78.357,62.369L78.4,62.396L78.444,62.423L78.487,62.451L78.531,62.478L78.574,62.506L78.617,62.534L78.659,62.562L78.702,62.591L78.744,62.62L78.786,62.649L78.828,62.678L78.87,62.708L78.912,62.737L78.953,62.767L78.994,62.798L79.035,62.828L79.076,62.859L79.117,62.89L79.157,62.921L79.198,62.952L79.238,62.984L79.278,63.016L79.317,63.048L79.357,63.08L79.396,63.113L79.435,63.145L79.474,63.178L79.512,63.211L79.551,63.245L79.589,63.279L79.627,63.312L79.665,63.346L79.702,63.381L79.74,63.415L79.777,63.45L79.814,63.485L79.851,63.52L79.887,63.556L79.923,63.591L79.959,63.627L79.995,63.663L80.031,63.699L80.066,63.735L80.102,63.772L80.137,63.809L80.171,63.846L80.206,63.883L80.24,63.921L80.274,63.958L80.308,63.996L80.342,64.034L80.375,64.072L80.408,64.111L80.441,64.149L80.474,64.188L80.506,64.227L80.539,64.266L80.571,64.306L80.602,64.345L80.634,64.385L80.665,64.425L80.696,64.465L80.727,64.506L80.757,64.546L80.788,64.587L80.818,64.628L80.847,64.669L80.877,64.71L80.906,64.752L80.935,64.793L80.964,64.835L80.993,64.877L81.021,64.919L81.049,64.961L81.077,65.004L81.104,65.047L81.132,65.089L81.159,65.132L81.185,65.176L81.212,65.219L81.238,65.263L81.264,65.306L81.29,65.35L81.315,65.394L81.341,65.438L81.365,65.483L81.39,65.527L81.415,65.572L81.439,65.617L81.462,65.662L81.486,65.707L81.509,65.752L81.532,65.798L81.555,65.843L81.578,65.889L81.6,65.935L81.622,65.981L81.643,66.027L81.665,66.073L81.686,66.12L81.707,66.167L81.727,66.213L81.747,66.26L81.767,66.308L81.787,66.355L81.806,66.402L81.825,66.45L81.844,66.497L81.863,66.545L81.881,66.593L81.899,66.641L81.916,66.689L81.934,66.738L81.951,66.786L81.967,66.835L81.984,66.884L82,66.933L82.016,66.982L82.031,67.031L82.047,67.08L82.062,67.129L82.076,67.179L82.09,67.229L82.104,67.278L82.118,67.328L82.132,67.378L82.145,67.428L82.157,67.479L82.17,67.529L82.182,67.579L82.194,67.63L82.205,67.681L82.217,67.732L82.227,67.783L82.238,67.834L82.248,67.885L82.258,67.936L82.268,67.988L82.277,68.039L82.286,68.091L82.295,68.142L82.303,68.194L82.311,68.246L82.319,68.298L82.326,68.35L82.333,68.403L82.34,68.455L82.346,68.507L82.352,68.56L82.358,68.612L82.363,68.665L82.368,68.718L82.373,68.771L82.377,68.824L82.381,68.877L82.385,68.93L82.388,68.984L82.391,69.037L82.393,69.09L82.396,69.144L82.398,69.197L82.399,69.251L82.4,69.305L82.401,69.359L82.402,69.413L82.402,69.467L82.402,69.521L82.401,69.575L82.4,69.629L82.399,69.683L82.398,69.736L82.396,69.79L82.393,69.843L82.391,69.897L82.388,69.95L82.385,70.004L82.381,70.057L82.377,70.11L82.373,70.163L82.368,70.216L82.363,70.269L82.358,70.321L82.352,70.374L82.346,70.426L82.34,70.479L82.333,70.531L82.326,70.583L82.319,70.636L82.311,70.688L82.303,70.74L82.295,70.791L82.286,70.843L82.277,70.895L82.268,70.946L82.258,70.998L82.248,71.049L82.238,71.1L82.227,71.151L82.217,71.202L82.205,71.253L82.194,71.304L82.182,71.354L82.17,71.405L82.157,71.455L82.145,71.505L82.132,71.556L82.118,71.606L82.104,71.655L82.09,71.705L82.076,71.755L82.062,71.804L82.047,71.854L82.031,71.903L82.016,71.952L82,72.001L81.984,72.05L81.967,72.099L81.951,72.148L81.934,72.196L81.916,72.244L81.899,72.293L81.881,72.341L81.863,72.389L81.844,72.436L81.825,72.484L81.806,72.532L81.787,72.579L81.767,72.626L81.747,72.673L81.727,72.72L81.707,72.767L81.686,72.814L81.665,72.86L81.643,72.907L81.622,72.953L81.6,72.999L81.578,73.045L81.555,73.091L81.532,73.136L81.509,73.182L81.486,73.227L81.462,73.272L81.439,73.317L81.415,73.362L81.39,73.407L81.365,73.451L81.341,73.496L81.315,73.54L81.29,73.584L81.264,73.628L81.238,73.671L81.212,73.715L81.185,73.758L81.159,73.801L81.132,73.844L81.104,73.887L81.077,73.93L81.049,73.972L81.021,74.015L80.993,74.057L80.964,74.099L80.935,74.141L80.906,74.182L80.877,74.224L80.847,74.265L80.818,74.306L80.788,74.347L80.757,74.388L80.727,74.428L80.696,74.468L80.665,74.509L80.634,74.549L80.602,74.588L80.571,74.628L80.539,74.667L80.506,74.707L80.474,74.746L80.441,74.784L80.408,74.823L80.375,74.861L80.342,74.9L80.308,74.938L80.274,74.976L80.24,75.013L80.206,75.051L80.171,75.088L80.137,75.125L80.102,75.162L80.066,75.198L80.031,75.235L79.995,75.271L79.959,75.307L79.923,75.343L79.887,75.378L79.851,75.414L79.814,75.449L79.777,75.484L79.74,75.518L79.702,75.553L79.665,75.587L79.627,75.621L79.589,75.655L79.551,75.689L79.512,75.722L79.474,75.755L79.435,75.788L79.396,75.821L79.357,75.854L79.317,75.886L79.278,75.918L79.238,75.95L79.198,75.982L79.157,76.013L79.117,76.044L79.076,76.075L79.035,76.106L78.994,76.136L78.953,76.166L78.912,76.196L78.87,76.226L78.828,76.256L78.786,76.285L78.744,76.314L78.702,76.343L78.659,76.371L78.617,76.4L78.574,76.428L78.531,76.456L78.487,76.483L78.444,76.51L78.4,76.538L78.357,76.564L78.313,76.591L78.269,76.617L78.224,76.643L78.18,76.669L78.135,76.695L78.09,76.72L78.045,76.745L78,76.77L77.955,76.794L77.909,76.819L77.863,76.843L77.818,76.866L77.772,76.89L77.725,76.913L77.679,76.936L77.633,76.959L77.586,76.981L77.539,77.003L77.492,77.025L77.445,77.047L77.398,77.068L77.35,77.089L77.303,77.11L77.255,77.131L77.207,77.151L77.159,77.171L77.111,77.191L77.062,77.21L77.014,77.229L76.965,77.248L76.917,77.267L76.868,77.285L76.819,77.303L76.769,77.321L76.72,77.338L76.67,77.355L76.621,77.372L76.571,77.389L76.521,77.405L76.471,77.421L76.421,77.437L76.371,77.452L76.32,77.467L76.27,77.482L76.219,77.497L76.168,77.511L76.117,77.525L76.066,77.539L76.015,77.552L75.964,77.565L75.912,77.578L75.86,77.59L75.809,77.602L75.757,77.614L75.705,77.626L75.653,77.637L75.601,77.648L75.548,77.658L75.496,77.669L75.443,77.679L75.391,77.688L75.338,77.698L75.285,77.707L75.232,77.716L75.179,77.724L75.126,77.732L75.073,77.74L75.019,77.747L74.966,77.754L74.912,77.761L74.858,77.768L74.805,77.774L74.751,77.78L74.697,77.785L74.643,77.79L74.588,77.795L74.534,77.8L74.48,77.804L74.425,77.808L74.371,77.812L74.316,77.815L74.261,77.818L74.206,77.82L74.151,77.822L74.096,77.824L74.041,77.826L73.986,77.827L73.931,77.828L73.875,77.828L73.82,77.828L73.764,77.828L73.709,77.828L73.654,77.827L73.598,77.826L73.543,77.824L73.488,77.822L73.433,77.82L73.378,77.818L73.324,77.815L73.269,77.812L73.214,77.808L73.16,77.804L73.105,77.8L73.051,77.795L72.997,77.79L72.943,77.785L72.889,77.78L72.835,77.774L72.781,77.768L72.727,77.761L72.674,77.754L72.62,77.747L72.567,77.74L72.513,77.732L72.46,77.724L72.407,77.716L72.354,77.707L72.301,77.698L72.249,77.688L72.196,77.679L72.143,77.669L72.091,77.658L72.039,77.648L71.987,77.637L71.934,77.626L71.883,77.614L71.831,77.602L71.779,77.59L71.727,77.578L71.676,77.565L71.625,77.552L71.573,77.539L71.522,77.525L71.471,77.511L71.421,77.497L71.37,77.482L71.319,77.467L71.269,77.452L71.219,77.437L71.168,77.421L71.118,77.405L71.068,77.389L71.019,77.372L70.969,77.355L70.92,77.338L70.87,77.321L70.821,77.303L70.772,77.285L70.723,77.267L70.674,77.248L70.626,77.229L70.577,77.21L70.529,77.191L70.48,77.171L70.432,77.151L70.385,77.131L70.337,77.11L70.289,77.089L70.242,77.068L70.194,77.047L70.147,77.025L70.1,77.003L70.054,76.981L70.007,76.959L69.96,76.936L69.914,76.913L69.868,76.89L69.822,76.866L69.776,76.843L69.73,76.819L69.685,76.794L69.639,76.77L69.594,76.745L69.549,76.72L69.504,76.695L69.46,76.669L69.415,76.643L69.371,76.617L69.327,76.591L69.283,76.564L69.239,76.538L69.195,76.51L69.152,76.483L69.109,76.456L69.066,76.428L69.023,76.4L68.98,76.371L68.937,76.343L68.895,76.314L68.853,76.285L68.811,76.256L68.769,76.226L68.728,76.196L68.686,76.166L68.645,76.136L68.604,76.106L68.563,76.075L68.523,76.044L68.482,76.013L68.442,75.982L68.402,75.95L68.362,75.918L68.322,75.886L68.283,75.854L68.244,75.821L68.205,75.788L68.166,75.755L68.127,75.722L68.089,75.689L68.051,75.655L68.013,75.621L67.975,75.587L67.937,75.553L67.9,75.518L67.863,75.484L67.826,75.449L67.789,75.414L67.752,75.378L67.716,75.343L67.68,75.307L67.644,75.271L67.608,75.235L67.573,75.198L67.538,75.162L67.503,75.125L67.468,75.088L67.434,75.051L67.399,75.013L67.365,74.976L67.331,74.938L67.298,74.9L67.264,74.861L67.231,74.823L67.198,74.784L67.166,74.746L67.133,74.707L67.101,74.667L67.069,74.628L67.037,74.588L67.006,74.549L66.974,74.509L66.943,74.468L66.913,74.428L66.882,74.388L66.852,74.347L66.822,74.306L66.792,74.265L66.762,74.224L66.733,74.182L66.704,74.141L66.675,74.099L66.647,74.057L66.618,74.015L66.59,73.972L66.563,73.93L66.535,73.887L66.508,73.844L66.481,73.801L66.454,73.758L66.427,73.715L66.401,73.671L66.375,73.628L66.35,73.584L66.324,73.54L66.299,73.496L66.274,73.451L66.249,73.407L66.225,73.362L66.201,73.317L66.177,73.272L66.153,73.227L66.13,73.182L66.107,73.136L66.084,73.091L66.062,73.045L66.04,72.999L66.018,72.953L65.996,72.907L65.975,72.86L65.954,72.814L65.933,72.767L65.912,72.72L65.892,72.673L65.872,72.626L65.853,72.579L65.833,72.532L65.814,72.484L65.795,72.436L65.777,72.389L65.759,72.341L65.741,72.293L65.723,72.244L65.706,72.196L65.689,72.148L65.672,72.099L65.656,72.05L65.639,72.001L65.624,71.952L65.608,71.903L65.593,71.854L65.578,71.804L65.563,71.755L65.549,71.705L65.535,71.655L65.521,71.606L65.508,71.556L65.495,71.505L65.482,71.455L65.47,71.405L65.457,71.354L65.446,71.304L65.434,71.253L65.423,71.202L65.412,71.151L65.401,71.1L65.391,71.049L65.381,70.998L65.372,70.946L65.362,70.895L65.353,70.843L65.345,70.791L65.336,70.74L65.329,70.688L65.321,70.636L65.314,70.583L65.307,70.531L65.3,70.479L65.294,70.426L65.288,70.374L65.282,70.321L65.277,70.269L65.272,70.216L65.267,70.163L65.263,70.11L65.259,70.057L65.255,70.004L65.252,69.95L65.249,69.897L65.246,69.843L65.244,69.79L65.242,69.736L65.24,69.683L65.239,69.629L65.238,69.575L65.238,69.521L65.238,69.467L65.238,69.413L65.238,69.359L65.239,69.305L65.24,69.251L65.242,69.197L65.244,69.144L65.246,69.09L65.249,69.037L65.252,68.984L65.255,68.93L65.259,68.877L65.263,68.824L65.267,68.771L65.272,68.718L65.277,68.665L65.282,68.612L65.288,68.56L65.294,68.507L65.3,68.455L65.307,68.403L65.314,68.35L65.321,68.298L65.329,68.246L65.336,68.194L65.345,68.142L65.353,68.091L65.362,68.039L65.372,67.988L65.381,67.936L65.391,67.885L65.401,67.834L65.412,67.783L65.423,67.732L65.434,67.681L65.446,67.63L65.457,67.579L65.47,67.529L65.482,67.479L65.495,67.428L65.508,67.378L65.521,67.328L65.535,67.278L65.549,67.229L65.563,67.179L65.578,67.129L65.593,67.08L65.608,67.031L65.624,66.982L65.639,66.933L65.656,66.884L65.672,66.835L65.689,66.786L65.706,66.738L65.723,66.689L65.741,66.641L65.759,66.593L65.777,66.545L65.795,66.497L65.814,66.45L65.833,66.402L65.853,66.355L65.872,66.308L65.892,66.26L65.912,66.213L65.933,66.167L65.954,66.12L65.975,66.073L65.996,66.027L66.018,65.981L66.04,65.935L66.062,65.889L66.084,65.843L66.107,65.798L66.13,65.752L66.153,65.707L66.177,65.662L66.201,65.617L66.225,65.572L66.249,65.527L66.274,65.483L66.299,65.438L66.324,65.394L66.35,65.35L66.375,65.306L66.401,65.263L66.427,65.219L66.454,65.176L66.481,65.132L66.508,65.089L66.535,65.047L66.563,65.004L66.59,64.961L66.618,64.919L66.647,64.877L66.675,64.835L66.704,64.793L66.733,64.752L66.762,64.71L66.792,64.669L66.822,64.628L66.852,64.587L66.882,64.546L66.913,64.506L66.943,64.465L66.974,64.425L67.006,64.385L67.037,64.345L67.069,64.306L67.101,64.266L67.133,64.227L67.166,64.188L67.198,64.149L67.231,64.111L67.264,64.072L67.298,64.034L67.331,63.996L67.365,63.958L67.399,63.921L67.434,63.883L67.468,63.846L67.503,63.809L67.538,63.772L67.573,63.735L67.608,63.699L67.644,63.663L67.68,63.627L67.716,63.591L67.752,63.556L67.789,63.52L67.826,63.485L67.863,63.45L67.9,63.415L67.937,63.381L67.975,63.346L68.013,63.312L68.051,63.279L68.089,63.245L68.127,63.211L68.166,63.178L68.205,63.145L68.244,63.113L68.283,63.08L68.322,63.048L68.362,63.016L68.402,62.984L68.442,62.952L68.482,62.921L68.523,62.89L68.563,62.859L68.604,62.828L68.645,62.798L68.686,62.767L68.728,62.737L68.769,62.708L68.811,62.678L68.853,62.649L68.895,62.62L68.937,62.591L68.98,62.562L69.023,62.534L69.066,62.506L69.109,62.478L69.152,62.451L69.195,62.423L69.239,62.396L69.283,62.369L69.327,62.343L69.371,62.317L69.415,62.29L69.46,62.265L69.504,62.239L69.549,62.214L69.594,62.189L69.639,62.164L69.685,62.139L69.73,62.115L69.776,62.091L69.822,62.067L69.868,62.044L69.914,62.021L69.96,61.998L70.007,61.975L70.054,61.953L70.1,61.93L70.147,61.908L70.194,61.887L70.242,61.865L70.289,61.844L70.337,61.824L70.385,61.803L70.432,61.783L70.48,61.763L70.529,61.743L70.577,61.724L70.626,61.705L70.674,61.686L70.723,61.667L70.772,61.649L70.821,61.631L70.87,61.613L70.92,61.596L70.969,61.578L71.019,61.562L71.068,61.545L71.118,61.529L71.168,61.513L71.219,61.497L71.269,61.481L71.319,61.466L71.37,61.452L71.421,61.437L71.471,61.423L71.522,61.409L71.573,61.395L71.625,61.382L71.676,61.369L71.727,61.356L71.779,61.344L71.831,61.331L71.883,61.32L71.934,61.308L71.987,61.297L72.039,61.286L72.091,61.275L72.143,61.265L72.196,61.255L72.249,61.245L72.301,61.236L72.354,61.227L72.407,61.218L72.46,61.21L72.513,61.202L72.567,61.194L72.62,61.186L72.674,61.179L72.727,61.173L72.781,61.166L72.835,61.16L72.889,61.154L72.943,61.148L72.997,61.143L73.051,61.138L73.105,61.134L73.16,61.13L73.214,61.126L73.269,61.122L73.324,61.119L73.378,61.116L73.433,61.114L73.488,61.111L73.543,61.11L73.598,61.108L73.654,61.107L73.709,61.106L73.764,61.105L73.82,61.105L73.875,61.105ZM73.802,67.203L73.784,67.203L73.767,67.204L73.749,67.204L73.732,67.205L73.714,67.205L73.697,67.206L73.68,67.207L73.662,67.208L73.645,67.209L73.628,67.21L73.611,67.211L73.594,67.212L73.577,67.214L73.561,67.215L73.544,67.217L73.527,67.218L73.511,67.22L73.494,67.222L73.478,67.224L73.461,67.226L73.445,67.228L73.429,67.231L73.413,67.233L73.396,67.235L73.38,67.238L73.364,67.241L73.348,67.243L73.332,67.246L73.316,67.249L73.3,67.252L73.285,67.255L73.269,67.258L73.253,67.262L73.238,67.265L73.222,67.269L73.206,67.272L73.191,67.276L73.175,67.279L73.16,67.283L73.145,67.287L73.129,67.291L73.114,67.295L73.099,67.299L73.084,67.304L73.069,67.308L73.054,67.312L73.039,67.317L73.024,67.321L73.009,67.326L72.994,67.331L72.979,67.336L72.964,67.341L72.95,67.346L72.935,67.351L72.921,67.356L72.906,67.361L72.891,67.366L72.877,67.372L72.862,67.377L72.848,67.383L72.834,67.389L72.82,67.394L72.805,67.4L72.791,67.406L72.777,67.412L72.763,67.418L72.749,67.424L72.735,67.43L72.721,67.437L72.707,67.443L72.693,67.45L72.679,67.456L72.666,67.463L72.652,67.469L72.638,67.476L72.625,67.483L72.611,67.49L72.598,67.497L72.584,67.504L72.571,67.511L72.557,67.518L72.544,67.526L72.531,67.533L72.518,67.54L72.505,67.548L72.491,67.556L72.478,67.563L72.465,67.571L72.452,67.579L72.44,67.587L72.427,67.595L72.414,67.603L72.402,67.611L72.389,67.619L72.376,67.627L72.364,67.635L72.351,67.644L72.339,67.652L72.327,67.661L72.314,67.669L72.302,67.678L72.29,67.687L72.278,67.695L72.266,67.704L72.254,67.713L72.242,67.722L72.23,67.731L72.218,67.74L72.207,67.749L72.195,67.758L72.183,67.768L72.172,67.777L72.161,67.786L72.149,67.796L72.138,67.805L72.127,67.815L72.115,67.824L72.104,67.834L72.093,67.844L72.082,67.853L72.071,67.863L72.061,67.873L72.05,67.883L72.039,67.893L72.029,67.903L72.018,67.913L72.008,67.923L71.997,67.933L71.987,67.944L71.977,67.954L71.967,67.964L71.957,67.974L71.947,67.985L71.937,67.995L71.927,68.006L71.917,68.016L71.907,68.027L71.898,68.037L71.888,68.048L71.879,68.059L71.869,68.07L71.86,68.08L71.851,68.091L71.842,68.102L71.833,68.113L71.824,68.124L71.815,68.135L71.806,68.146L71.797,68.157L71.789,68.168L71.78,68.179L71.772,68.19L71.763,68.201L71.755,68.213L71.746,68.224L71.739,68.235L71.731,68.246L71.723,68.257L71.715,68.269L71.707,68.28L71.699,68.292L71.691,68.303L71.684,68.314L71.676,68.326L71.669,68.337L71.662,68.349L71.654,68.36L71.647,68.372L71.64,68.384L71.633,68.395L71.626,68.407L71.619,68.418L71.613,68.43L71.606,68.442L71.599,68.453L71.593,68.465L71.586,68.477L71.58,68.489L71.574,68.5L71.568,68.512L71.562,68.524L71.556,68.536L71.55,68.548L71.544,68.56L71.538,68.572L71.532,68.583L71.527,68.595L71.521,68.607L71.516,68.619L71.51,68.631L71.505,68.643L71.5,68.655L71.495,68.668L71.49,68.679L71.485,68.691L71.48,68.704L71.475,68.716L71.471,68.728L71.466,68.74L71.462,68.752L71.457,68.764L71.453,68.777L71.449,68.789L71.444,68.801L71.44,68.813L71.436,68.825L71.432,68.838L71.428,68.85L71.425,68.862L71.421,68.875L71.417,68.887L71.414,68.899L71.41,68.912L71.407,68.924L71.403,68.936L71.4,68.949L71.397,68.962L71.394,68.974L71.391,68.987L71.388,68.999L71.385,69.012L71.382,69.025L71.379,69.038L71.377,69.05L71.374,69.063L71.372,69.076L71.369,69.088L71.367,69.101L71.365,69.114L71.363,69.127L71.361,69.14L71.359,69.153L71.357,69.166L71.355,69.179L71.353,69.192L71.351,69.206L71.35,69.219L71.348,69.232L71.347,69.245L71.345,69.259L71.344,69.273L71.343,69.286L71.342,69.299L71.341,69.313L71.34,69.327L71.339,69.34L71.338,69.354L71.338,69.368L71.337,69.382L71.337,69.396L71.336,69.41L71.336,69.424L71.336,69.438L71.335,69.453L71.335,69.467L71.336,69.496L71.336,69.524L71.337,69.552L71.338,69.58L71.34,69.607L71.342,69.635L71.344,69.661L71.347,69.688L71.35,69.715L71.353,69.741L71.357,69.768L71.361,69.794L71.365,69.82L71.369,69.845L71.374,69.871L71.379,69.896L71.385,69.922L71.391,69.947L71.397,69.972L71.403,69.997L71.41,70.022L71.417,70.047L71.425,70.072L71.432,70.096L71.44,70.121L71.449,70.145L71.457,70.17L71.466,70.194L71.475,70.218L71.485,70.242L71.495,70.266L71.505,70.291L71.516,70.314L71.527,70.338L71.538,70.362L71.55,70.386L71.561,70.409L71.574,70.433L71.586,70.457L71.599,70.48L71.613,70.504L71.626,70.527L71.64,70.55L71.654,70.574L71.669,70.597L71.684,70.619L71.699,70.642L71.715,70.665L71.731,70.688L71.746,70.71L71.763,70.733L71.78,70.755L71.798,70.777L71.815,70.799L71.833,70.821L71.851,70.842L71.87,70.864L71.888,70.885L71.908,70.907L71.927,70.928L71.947,70.949L71.967,70.97L71.987,70.99L72.008,71.011L72.029,71.031L72.05,71.051L72.072,71.071L72.093,71.09L72.115,71.109L72.138,71.129L72.161,71.148L72.184,71.166L72.207,71.185L72.23,71.203L72.254,71.221L72.278,71.239L72.302,71.256L72.327,71.273L72.351,71.29L72.376,71.307L72.402,71.323L72.427,71.339L72.453,71.355L72.478,71.371L72.505,71.386L72.531,71.401L72.557,71.415L72.584,71.43L72.611,71.444L72.638,71.457L72.666,71.471L72.693,71.484L72.721,71.497L72.749,71.51L72.777,71.522L72.805,71.534L72.834,71.545L72.863,71.556L72.891,71.567L72.92,71.578L72.95,71.588L72.979,71.598L73.009,71.608L73.039,71.617L73.069,71.626L73.099,71.634L73.129,71.643L73.16,71.65L73.191,71.658L73.222,71.665L73.253,71.672L73.284,71.678L73.316,71.685L73.348,71.69L73.38,71.696L73.412,71.701L73.445,71.705L73.478,71.71L73.511,71.714L73.544,71.717L73.578,71.72L73.611,71.723L73.645,71.725L73.68,71.727L73.714,71.729L73.749,71.73L73.784,71.73L73.82,71.731L73.837,71.731L73.855,71.73L73.873,71.73L73.89,71.73L73.908,71.729L73.925,71.729L73.943,71.728L73.96,71.727L73.977,71.726L73.994,71.725L74.011,71.724L74.028,71.723L74.045,71.722L74.062,71.72L74.079,71.719L74.096,71.717L74.112,71.715L74.129,71.714L74.145,71.712L74.162,71.71L74.178,71.708L74.194,71.705L74.211,71.703L74.227,71.701L74.243,71.698L74.259,71.696L74.276,71.693L74.292,71.69L74.307,71.688L74.323,71.685L74.339,71.682L74.355,71.678L74.371,71.675L74.386,71.672L74.402,71.669L74.418,71.665L74.433,71.662L74.448,71.658L74.464,71.654L74.479,71.65L74.495,71.647L74.51,71.643L74.525,71.639L74.54,71.634L74.556,71.63L74.571,71.626L74.586,71.621L74.601,71.617L74.616,71.612L74.631,71.608L74.645,71.603L74.66,71.598L74.675,71.593L74.69,71.588L74.704,71.583L74.719,71.578L74.734,71.573L74.748,71.567L74.763,71.562L74.777,71.556L74.791,71.551L74.806,71.545L74.82,71.539L74.834,71.534L74.848,71.528L74.863,71.522L74.876,71.516L74.891,71.51L74.905,71.503L74.919,71.497L74.933,71.49L74.946,71.484L74.96,71.478L74.974,71.471L74.987,71.464L75.001,71.458L75.015,71.451L75.028,71.444L75.042,71.437L75.055,71.43L75.069,71.423L75.082,71.415L75.096,71.408L75.109,71.401L75.122,71.393L75.135,71.386L75.148,71.378L75.161,71.37L75.174,71.363L75.187,71.355L75.2,71.347L75.213,71.339L75.225,71.331L75.238,71.323L75.251,71.315L75.263,71.307L75.276,71.298L75.288,71.29L75.301,71.282L75.313,71.273L75.325,71.265L75.338,71.256L75.35,71.247L75.362,71.239L75.374,71.23L75.386,71.221L75.398,71.212L75.409,71.203L75.421,71.194L75.433,71.185L75.444,71.176L75.456,71.166L75.468,71.157L75.479,71.148L75.49,71.138L75.502,71.129L75.513,71.119L75.524,71.109L75.535,71.1L75.546,71.09L75.557,71.08L75.568,71.071L75.579,71.061L75.589,71.051L75.6,71.041L75.611,71.031L75.621,71.021L75.632,71.011L75.642,71.001L75.652,70.99L75.663,70.98L75.673,70.97L75.683,70.959L75.693,70.949L75.703,70.939L75.713,70.928L75.722,70.918L75.732,70.907L75.742,70.896L75.751,70.885L75.761,70.875L75.77,70.864L75.779,70.853L75.789,70.842L75.798,70.832L75.807,70.821L75.816,70.81L75.825,70.799L75.833,70.788L75.842,70.777L75.851,70.766L75.859,70.755L75.868,70.744L75.876,70.733L75.885,70.721L75.893,70.71L75.901,70.699L75.909,70.688L75.917,70.676L75.925,70.665L75.933,70.654L75.941,70.642L75.948,70.631L75.956,70.619L75.963,70.608L75.971,70.597L75.978,70.585L75.985,70.574L75.992,70.562L75.999,70.55L76.006,70.539L76.013,70.527L76.02,70.515L76.027,70.504L76.034,70.492L76.04,70.48L76.047,70.469L76.053,70.457L76.059,70.445L76.066,70.433L76.072,70.422L76.078,70.41L76.084,70.398L76.09,70.386L76.096,70.374L76.101,70.362L76.107,70.35L76.113,70.338L76.118,70.326L76.124,70.314L76.129,70.302L76.134,70.291L76.139,70.279L76.144,70.266L76.149,70.254L76.154,70.242L76.159,70.23L76.164,70.219L76.169,70.206L76.173,70.194L76.178,70.182L76.182,70.169L76.187,70.158L76.191,70.145L76.195,70.133L76.199,70.121L76.203,70.109L76.207,70.096L76.211,70.084L76.215,70.072L76.219,70.059L76.222,70.047L76.226,70.035L76.229,70.022L76.233,70.01L76.236,69.997L76.239,69.985L76.243,69.972L76.246,69.96L76.249,69.947L76.252,69.935L76.254,69.922L76.257,69.909L76.26,69.896L76.263,69.883L76.265,69.871L76.268,69.858L76.27,69.845L76.272,69.833L76.275,69.82L76.277,69.807L76.279,69.794L76.281,69.781L76.283,69.768L76.285,69.755L76.286,69.741L76.288,69.728L76.29,69.715L76.291,69.702L76.293,69.688L76.294,69.675L76.295,69.661L76.296,69.648L76.298,69.635L76.299,69.621L76.299,69.607L76.3,69.594L76.301,69.58L76.302,69.566L76.302,69.552L76.303,69.538L76.303,69.524L76.304,69.51L76.304,69.495L76.304,69.481L76.304,69.467L76.304,69.453L76.304,69.439L76.304,69.424L76.303,69.41L76.303,69.396L76.302,69.382L76.302,69.368L76.301,69.354L76.3,69.34L76.3,69.326L76.299,69.313L76.298,69.299L76.296,69.286L76.295,69.273L76.294,69.259L76.293,69.245L76.291,69.232L76.29,69.219L76.288,69.205L76.286,69.192L76.285,69.179L76.283,69.166L76.281,69.153L76.279,69.14L76.277,69.127L76.275,69.114L76.272,69.101L76.27,69.088L76.268,69.076L76.265,69.063L76.263,69.05L76.26,69.037L76.257,69.025L76.254,69.012L76.252,68.999L76.249,68.987L76.246,68.974L76.243,68.962L76.239,68.949L76.236,68.937L76.233,68.924L76.229,68.911L76.226,68.899L76.222,68.887L76.219,68.875L76.215,68.862L76.211,68.85L76.207,68.838L76.203,68.825L76.199,68.813L76.195,68.801L76.191,68.789L76.187,68.776L76.182,68.764L76.178,68.752L76.173,68.74L76.169,68.728L76.164,68.715L76.159,68.704L76.154,68.691L76.149,68.679L76.145,68.668L76.139,68.655L76.134,68.643L76.129,68.631L76.124,68.619L76.118,68.607L76.113,68.595L76.107,68.583L76.101,68.572L76.096,68.56L76.09,68.548L76.084,68.536L76.078,68.524L76.072,68.512L76.066,68.5L76.059,68.489L76.053,68.477L76.047,68.465L76.04,68.453L76.034,68.442L76.027,68.43L76.02,68.418L76.014,68.407L76.006,68.395L75.999,68.383L75.992,68.372L75.985,68.36L75.978,68.349L75.971,68.337L75.963,68.326L75.956,68.314L75.948,68.303L75.941,68.292L75.933,68.28L75.925,68.269L75.917,68.257L75.909,68.246L75.901,68.235L75.893,68.224L75.885,68.213L75.876,68.201L75.868,68.19L75.859,68.179L75.851,68.168L75.842,68.157L75.833,68.146L75.825,68.135L75.816,68.124L75.807,68.113L75.798,68.102L75.789,68.091L75.779,68.08L75.77,68.07L75.761,68.059L75.751,68.048L75.742,68.037L75.732,68.027L75.722,68.016L75.713,68.006L75.703,67.995L75.693,67.985L75.683,67.974L75.673,67.964L75.663,67.954L75.652,67.944L75.642,67.933L75.632,67.923L75.621,67.913L75.611,67.903L75.6,67.893L75.589,67.883L75.579,67.873L75.568,67.863L75.557,67.853L75.546,67.844L75.535,67.834L75.524,67.824L75.513,67.815L75.502,67.805L75.49,67.796L75.479,67.786L75.468,67.777L75.456,67.768L75.444,67.758L75.433,67.749L75.421,67.74L75.409,67.731L75.397,67.722L75.386,67.713L75.374,67.704L75.362,67.695L75.35,67.687L75.337,67.678L75.325,67.669L75.313,67.661L75.301,67.652L75.288,67.644L75.276,67.635L75.263,67.627L75.251,67.619L75.238,67.611L75.225,67.603L75.213,67.595L75.2,67.587L75.187,67.579L75.174,67.571L75.161,67.563L75.148,67.556L75.135,67.548L75.122,67.541L75.109,67.533L75.095,67.526L75.082,67.518L75.069,67.511L75.055,67.504L75.042,67.497L75.029,67.49L75.015,67.483L75.001,67.476L74.988,67.469L74.974,67.463L74.96,67.456L74.946,67.45L74.933,67.443L74.919,67.437L74.905,67.43L74.891,67.424L74.877,67.418L74.863,67.412L74.848,67.406L74.834,67.4L74.82,67.394L74.806,67.389L74.791,67.383L74.777,67.377L74.762,67.372L74.748,67.366L74.734,67.361L74.719,67.356L74.704,67.351L74.69,67.346L74.675,67.341L74.66,67.336L74.645,67.331L74.631,67.326L74.616,67.321L74.601,67.317L74.586,67.312L74.571,67.308L74.556,67.304L74.54,67.299L74.525,67.295L74.51,67.291L74.495,67.287L74.479,67.283L74.464,67.279L74.449,67.276L74.433,67.272L74.418,67.269L74.402,67.265L74.386,67.262L74.371,67.258L74.355,67.255L74.339,67.252L74.323,67.249L74.307,67.246L74.291,67.243L74.276,67.241L74.259,67.238L74.243,67.235L74.227,67.233L74.211,67.231L74.195,67.228L74.178,67.226L74.162,67.224L74.145,67.222L74.129,67.22L74.112,67.218L74.095,67.217L74.079,67.215L74.062,67.214L74.045,67.212L74.028,67.211L74.011,67.21L73.994,67.209L73.977,67.208L73.96,67.207L73.943,67.206L73.925,67.205L73.908,67.205L73.89,67.204L73.873,67.204L73.855,67.203L73.838,67.203L73.82,67.203L73.802,67.203Z" style="fill:white;"/>
            </g>
            <g id="Right-Eye" serif:id="Right Eye" transform="matrix(1,0,0,1,54.6655,-0.0936451)">
                <ellipse cx="73.82" cy="69.467" rx="8.582" ry="8.362" style="fill:white;"/>
                <path d="M73.875,61.105L73.931,61.106L73.986,61.107L74.041,61.108L74.096,61.11L74.151,61.111L74.206,61.114L74.261,61.116L74.316,61.119L74.371,61.122L74.425,61.126L74.48,61.13L74.534,61.134L74.588,61.138L74.643,61.143L74.697,61.148L74.751,61.154L74.805,61.16L74.858,61.166L74.912,61.173L74.966,61.179L75.019,61.186L75.073,61.194L75.126,61.202L75.179,61.21L75.232,61.218L75.285,61.227L75.338,61.236L75.391,61.245L75.443,61.255L75.496,61.265L75.548,61.275L75.601,61.286L75.653,61.297L75.705,61.308L75.757,61.32L75.809,61.331L75.86,61.344L75.912,61.356L75.964,61.369L76.015,61.382L76.066,61.395L76.117,61.409L76.168,61.423L76.219,61.437L76.27,61.452L76.32,61.466L76.371,61.481L76.421,61.497L76.471,61.513L76.521,61.529L76.571,61.545L76.621,61.562L76.67,61.578L76.72,61.596L76.769,61.613L76.819,61.631L76.868,61.649L76.917,61.667L76.965,61.686L77.014,61.705L77.062,61.724L77.111,61.743L77.159,61.763L77.207,61.783L77.255,61.803L77.303,61.824L77.35,61.844L77.398,61.865L77.445,61.887L77.492,61.908L77.539,61.93L77.586,61.953L77.633,61.975L77.679,61.998L77.725,62.021L77.772,62.044L77.818,62.067L77.863,62.091L77.909,62.115L77.955,62.139L78,62.164L78.045,62.189L78.09,62.214L78.135,62.239L78.18,62.265L78.224,62.29L78.269,62.317L78.313,62.343L78.357,62.369L78.4,62.396L78.444,62.423L78.487,62.451L78.531,62.478L78.574,62.506L78.617,62.534L78.659,62.562L78.702,62.591L78.744,62.62L78.786,62.649L78.828,62.678L78.87,62.708L78.912,62.737L78.953,62.767L78.994,62.798L79.035,62.828L79.076,62.859L79.117,62.89L79.157,62.921L79.198,62.952L79.238,62.984L79.278,63.016L79.317,63.048L79.357,63.08L79.396,63.113L79.435,63.145L79.474,63.178L79.512,63.211L79.551,63.245L79.589,63.279L79.627,63.312L79.665,63.346L79.702,63.381L79.74,63.415L79.777,63.45L79.814,63.485L79.851,63.52L79.887,63.556L79.923,63.591L79.959,63.627L79.995,63.663L80.031,63.699L80.066,63.735L80.102,63.772L80.137,63.809L80.171,63.846L80.206,63.883L80.24,63.921L80.274,63.958L80.308,63.996L80.342,64.034L80.375,64.072L80.408,64.111L80.441,64.149L80.474,64.188L80.506,64.227L80.539,64.266L80.571,64.306L80.602,64.345L80.634,64.385L80.665,64.425L80.696,64.465L80.727,64.506L80.757,64.546L80.788,64.587L80.818,64.628L80.847,64.669L80.877,64.71L80.906,64.752L80.935,64.793L80.964,64.835L80.993,64.877L81.021,64.919L81.049,64.961L81.077,65.004L81.104,65.047L81.132,65.089L81.159,65.132L81.185,65.176L81.212,65.219L81.238,65.263L81.264,65.306L81.29,65.35L81.315,65.394L81.341,65.438L81.365,65.483L81.39,65.527L81.415,65.572L81.439,65.617L81.462,65.662L81.486,65.707L81.509,65.752L81.532,65.798L81.555,65.843L81.578,65.889L81.6,65.935L81.622,65.981L81.643,66.027L81.665,66.073L81.686,66.12L81.707,66.167L81.727,66.213L81.747,66.26L81.767,66.308L81.787,66.355L81.806,66.402L81.825,66.45L81.844,66.497L81.863,66.545L81.881,66.593L81.899,66.641L81.916,66.689L81.934,66.738L81.951,66.786L81.967,66.835L81.984,66.884L82,66.933L82.016,66.982L82.031,67.031L82.047,67.08L82.062,67.129L82.076,67.179L82.09,67.229L82.104,67.278L82.118,67.328L82.132,67.378L82.145,67.428L82.157,67.479L82.17,67.529L82.182,67.579L82.194,67.63L82.205,67.681L82.217,67.732L82.227,67.783L82.238,67.834L82.248,67.885L82.258,67.936L82.268,67.988L82.277,68.039L82.286,68.091L82.295,68.142L82.303,68.194L82.311,68.246L82.319,68.298L82.326,68.35L82.333,68.403L82.34,68.455L82.346,68.507L82.352,68.56L82.358,68.612L82.363,68.665L82.368,68.718L82.373,68.771L82.377,68.824L82.381,68.877L82.385,68.93L82.388,68.984L82.391,69.037L82.393,69.09L82.396,69.144L82.398,69.197L82.399,69.251L82.4,69.305L82.401,69.359L82.402,69.413L82.402,69.467L82.402,69.521L82.401,69.575L82.4,69.629L82.399,69.683L82.398,69.736L82.396,69.79L82.393,69.843L82.391,69.897L82.388,69.95L82.385,70.004L82.381,70.057L82.377,70.11L82.373,70.163L82.368,70.216L82.363,70.269L82.358,70.321L82.352,70.374L82.346,70.426L82.34,70.479L82.333,70.531L82.326,70.583L82.319,70.636L82.311,70.688L82.303,70.74L82.295,70.791L82.286,70.843L82.277,70.895L82.268,70.946L82.258,70.998L82.248,71.049L82.238,71.1L82.227,71.151L82.217,71.202L82.205,71.253L82.194,71.304L82.182,71.354L82.17,71.405L82.157,71.455L82.145,71.505L82.132,71.556L82.118,71.606L82.104,71.655L82.09,71.705L82.076,71.755L82.062,71.804L82.047,71.854L82.031,71.903L82.016,71.952L82,72.001L81.984,72.05L81.967,72.099L81.951,72.148L81.934,72.196L81.916,72.244L81.899,72.293L81.881,72.341L81.863,72.389L81.844,72.436L81.825,72.484L81.806,72.532L81.787,72.579L81.767,72.626L81.747,72.673L81.727,72.72L81.707,72.767L81.686,72.814L81.665,72.86L81.643,72.907L81.622,72.953L81.6,72.999L81.578,73.045L81.555,73.091L81.532,73.136L81.509,73.182L81.486,73.227L81.462,73.272L81.439,73.317L81.415,73.362L81.39,73.407L81.365,73.451L81.341,73.496L81.315,73.54L81.29,73.584L81.264,73.628L81.238,73.671L81.212,73.715L81.185,73.758L81.159,73.801L81.132,73.844L81.104,73.887L81.077,73.93L81.049,73.972L81.021,74.015L80.993,74.057L80.964,74.099L80.935,74.141L80.906,74.182L80.877,74.224L80.847,74.265L80.818,74.306L80.788,74.347L80.757,74.388L80.727,74.428L80.696,74.468L80.665,74.509L80.634,74.549L80.602,74.588L80.571,74.628L80.539,74.667L80.506,74.707L80.474,74.746L80.441,74.784L80.408,74.823L80.375,74.861L80.342,74.9L80.308,74.938L80.274,74.976L80.24,75.013L80.206,75.051L80.171,75.088L80.137,75.125L80.102,75.162L80.066,75.198L80.031,75.235L79.995,75.271L79.959,75.307L79.923,75.343L79.887,75.378L79.851,75.414L79.814,75.449L79.777,75.484L79.74,75.518L79.702,75.553L79.665,75.587L79.627,75.621L79.589,75.655L79.551,75.689L79.512,75.722L79.474,75.755L79.435,75.788L79.396,75.821L79.357,75.854L79.317,75.886L79.278,75.918L79.238,75.95L79.198,75.982L79.157,76.013L79.117,76.044L79.076,76.075L79.035,76.106L78.994,76.136L78.953,76.166L78.912,76.196L78.87,76.226L78.828,76.256L78.786,76.285L78.744,76.314L78.702,76.343L78.659,76.371L78.617,76.4L78.574,76.428L78.531,76.456L78.487,76.483L78.444,76.51L78.4,76.538L78.357,76.564L78.313,76.591L78.269,76.617L78.224,76.643L78.18,76.669L78.135,76.695L78.09,76.72L78.045,76.745L78,76.77L77.955,76.794L77.909,76.819L77.863,76.843L77.818,76.866L77.772,76.89L77.725,76.913L77.679,76.936L77.633,76.959L77.586,76.981L77.539,77.003L77.492,77.025L77.445,77.047L77.398,77.068L77.35,77.089L77.303,77.11L77.255,77.131L77.207,77.151L77.159,77.171L77.111,77.191L77.062,77.21L77.014,77.229L76.965,77.248L76.917,77.267L76.868,77.285L76.819,77.303L76.769,77.321L76.72,77.338L76.67,77.355L76.621,77.372L76.571,77.389L76.521,77.405L76.471,77.421L76.421,77.437L76.371,77.452L76.32,77.467L76.27,77.482L76.219,77.497L76.168,77.511L76.117,77.525L76.066,77.539L76.015,77.552L75.964,77.565L75.912,77.578L75.86,77.59L75.809,77.602L75.757,77.614L75.705,77.626L75.653,77.637L75.601,77.648L75.548,77.658L75.496,77.669L75.443,77.679L75.391,77.688L75.338,77.698L75.285,77.707L75.232,77.716L75.179,77.724L75.126,77.732L75.073,77.74L75.019,77.747L74.966,77.754L74.912,77.761L74.858,77.768L74.805,77.774L74.751,77.78L74.697,77.785L74.643,77.79L74.588,77.795L74.534,77.8L74.48,77.804L74.425,77.808L74.371,77.812L74.316,77.815L74.261,77.818L74.206,77.82L74.151,77.822L74.096,77.824L74.041,77.826L73.986,77.827L73.931,77.828L73.875,77.828L73.82,77.828L73.764,77.828L73.709,77.828L73.654,77.827L73.598,77.826L73.543,77.824L73.488,77.822L73.433,77.82L73.378,77.818L73.324,77.815L73.269,77.812L73.214,77.808L73.16,77.804L73.105,77.8L73.051,77.795L72.997,77.79L72.943,77.785L72.889,77.78L72.835,77.774L72.781,77.768L72.727,77.761L72.674,77.754L72.62,77.747L72.567,77.74L72.513,77.732L72.46,77.724L72.407,77.716L72.354,77.707L72.301,77.698L72.249,77.688L72.196,77.679L72.143,77.669L72.091,77.658L72.039,77.648L71.987,77.637L71.934,77.626L71.883,77.614L71.831,77.602L71.779,77.59L71.727,77.578L71.676,77.565L71.625,77.552L71.573,77.539L71.522,77.525L71.471,77.511L71.421,77.497L71.37,77.482L71.319,77.467L71.269,77.452L71.219,77.437L71.168,77.421L71.118,77.405L71.068,77.389L71.019,77.372L70.969,77.355L70.92,77.338L70.87,77.321L70.821,77.303L70.772,77.285L70.723,77.267L70.674,77.248L70.626,77.229L70.577,77.21L70.529,77.191L70.48,77.171L70.432,77.151L70.385,77.131L70.337,77.11L70.289,77.089L70.242,77.068L70.194,77.047L70.147,77.025L70.1,77.003L70.054,76.981L70.007,76.959L69.96,76.936L69.914,76.913L69.868,76.89L69.822,76.866L69.776,76.843L69.73,76.819L69.685,76.794L69.639,76.77L69.594,76.745L69.549,76.72L69.504,76.695L69.46,76.669L69.415,76.643L69.371,76.617L69.327,76.591L69.283,76.564L69.239,76.538L69.195,76.51L69.152,76.483L69.109,76.456L69.066,76.428L69.023,76.4L68.98,76.371L68.937,76.343L68.895,76.314L68.853,76.285L68.811,76.256L68.769,76.226L68.728,76.196L68.686,76.166L68.645,76.136L68.604,76.106L68.563,76.075L68.523,76.044L68.482,76.013L68.442,75.982L68.402,75.95L68.362,75.918L68.322,75.886L68.283,75.854L68.244,75.821L68.205,75.788L68.166,75.755L68.127,75.722L68.089,75.689L68.051,75.655L68.013,75.621L67.975,75.587L67.937,75.553L67.9,75.518L67.863,75.484L67.826,75.449L67.789,75.414L67.752,75.378L67.716,75.343L67.68,75.307L67.644,75.271L67.608,75.235L67.573,75.198L67.538,75.162L67.503,75.125L67.468,75.088L67.434,75.051L67.399,75.013L67.365,74.976L67.331,74.938L67.298,74.9L67.264,74.861L67.231,74.823L67.198,74.784L67.166,74.746L67.133,74.707L67.101,74.667L67.069,74.628L67.037,74.588L67.006,74.549L66.974,74.509L66.943,74.468L66.913,74.428L66.882,74.388L66.852,74.347L66.822,74.306L66.792,74.265L66.762,74.224L66.733,74.182L66.704,74.141L66.675,74.099L66.647,74.057L66.618,74.015L66.59,73.972L66.563,73.93L66.535,73.887L66.508,73.844L66.481,73.801L66.454,73.758L66.427,73.715L66.401,73.671L66.375,73.628L66.35,73.584L66.324,73.54L66.299,73.496L66.274,73.451L66.249,73.407L66.225,73.362L66.201,73.317L66.177,73.272L66.153,73.227L66.13,73.182L66.107,73.136L66.084,73.091L66.062,73.045L66.04,72.999L66.018,72.953L65.996,72.907L65.975,72.86L65.954,72.814L65.933,72.767L65.912,72.72L65.892,72.673L65.872,72.626L65.853,72.579L65.833,72.532L65.814,72.484L65.795,72.436L65.777,72.389L65.759,72.341L65.741,72.293L65.723,72.244L65.706,72.196L65.689,72.148L65.672,72.099L65.656,72.05L65.639,72.001L65.624,71.952L65.608,71.903L65.593,71.854L65.578,71.804L65.563,71.755L65.549,71.705L65.535,71.655L65.521,71.606L65.508,71.556L65.495,71.505L65.482,71.455L65.47,71.405L65.457,71.354L65.446,71.304L65.434,71.253L65.423,71.202L65.412,71.151L65.401,71.1L65.391,71.049L65.381,70.998L65.372,70.946L65.362,70.895L65.353,70.843L65.345,70.791L65.336,70.74L65.329,70.688L65.321,70.636L65.314,70.583L65.307,70.531L65.3,70.479L65.294,70.426L65.288,70.374L65.282,70.321L65.277,70.269L65.272,70.216L65.267,70.163L65.263,70.11L65.259,70.057L65.255,70.004L65.252,69.95L65.249,69.897L65.246,69.843L65.244,69.79L65.242,69.736L65.24,69.683L65.239,69.629L65.238,69.575L65.238,69.521L65.238,69.467L65.238,69.413L65.238,69.359L65.239,69.305L65.24,69.251L65.242,69.197L65.244,69.144L65.246,69.09L65.249,69.037L65.252,68.984L65.255,68.93L65.259,68.877L65.263,68.824L65.267,68.771L65.272,68.718L65.277,68.665L65.282,68.612L65.288,68.56L65.294,68.507L65.3,68.455L65.307,68.403L65.314,68.35L65.321,68.298L65.329,68.246L65.336,68.194L65.345,68.142L65.353,68.091L65.362,68.039L65.372,67.988L65.381,67.936L65.391,67.885L65.401,67.834L65.412,67.783L65.423,67.732L65.434,67.681L65.446,67.63L65.457,67.579L65.47,67.529L65.482,67.479L65.495,67.428L65.508,67.378L65.521,67.328L65.535,67.278L65.549,67.229L65.563,67.179L65.578,67.129L65.593,67.08L65.608,67.031L65.624,66.982L65.639,66.933L65.656,66.884L65.672,66.835L65.689,66.786L65.706,66.738L65.723,66.689L65.741,66.641L65.759,66.593L65.777,66.545L65.795,66.497L65.814,66.45L65.833,66.402L65.853,66.355L65.872,66.308L65.892,66.26L65.912,66.213L65.933,66.167L65.954,66.12L65.975,66.073L65.996,66.027L66.018,65.981L66.04,65.935L66.062,65.889L66.084,65.843L66.107,65.798L66.13,65.752L66.153,65.707L66.177,65.662L66.201,65.617L66.225,65.572L66.249,65.527L66.274,65.483L66.299,65.438L66.324,65.394L66.35,65.35L66.375,65.306L66.401,65.263L66.427,65.219L66.454,65.176L66.481,65.132L66.508,65.089L66.535,65.047L66.563,65.004L66.59,64.961L66.618,64.919L66.647,64.877L66.675,64.835L66.704,64.793L66.733,64.752L66.762,64.71L66.792,64.669L66.822,64.628L66.852,64.587L66.882,64.546L66.913,64.506L66.943,64.465L66.974,64.425L67.006,64.385L67.037,64.345L67.069,64.306L67.101,64.266L67.133,64.227L67.166,64.188L67.198,64.149L67.231,64.111L67.264,64.072L67.298,64.034L67.331,63.996L67.365,63.958L67.399,63.921L67.434,63.883L67.468,63.846L67.503,63.809L67.538,63.772L67.573,63.735L67.608,63.699L67.644,63.663L67.68,63.627L67.716,63.591L67.752,63.556L67.789,63.52L67.826,63.485L67.863,63.45L67.9,63.415L67.937,63.381L67.975,63.346L68.013,63.312L68.051,63.279L68.089,63.245L68.127,63.211L68.166,63.178L68.205,63.145L68.244,63.113L68.283,63.08L68.322,63.048L68.362,63.016L68.402,62.984L68.442,62.952L68.482,62.921L68.523,62.89L68.563,62.859L68.604,62.828L68.645,62.798L68.686,62.767L68.728,62.737L68.769,62.708L68.811,62.678L68.853,62.649L68.895,62.62L68.937,62.591L68.98,62.562L69.023,62.534L69.066,62.506L69.109,62.478L69.152,62.451L69.195,62.423L69.239,62.396L69.283,62.369L69.327,62.343L69.371,62.317L69.415,62.29L69.46,62.265L69.504,62.239L69.549,62.214L69.594,62.189L69.639,62.164L69.685,62.139L69.73,62.115L69.776,62.091L69.822,62.067L69.868,62.044L69.914,62.021L69.96,61.998L70.007,61.975L70.054,61.953L70.1,61.93L70.147,61.908L70.194,61.887L70.242,61.865L70.289,61.844L70.337,61.824L70.385,61.803L70.432,61.783L70.48,61.763L70.529,61.743L70.577,61.724L70.626,61.705L70.674,61.686L70.723,61.667L70.772,61.649L70.821,61.631L70.87,61.613L70.92,61.596L70.969,61.578L71.019,61.562L71.068,61.545L71.118,61.529L71.168,61.513L71.219,61.497L71.269,61.481L71.319,61.466L71.37,61.452L71.421,61.437L71.471,61.423L71.522,61.409L71.573,61.395L71.625,61.382L71.676,61.369L71.727,61.356L71.779,61.344L71.831,61.331L71.883,61.32L71.934,61.308L71.987,61.297L72.039,61.286L72.091,61.275L72.143,61.265L72.196,61.255L72.249,61.245L72.301,61.236L72.354,61.227L72.407,61.218L72.46,61.21L72.513,61.202L72.567,61.194L72.62,61.186L72.674,61.179L72.727,61.173L72.781,61.166L72.835,61.16L72.889,61.154L72.943,61.148L72.997,61.143L73.051,61.138L73.105,61.134L73.16,61.13L73.214,61.126L73.269,61.122L73.324,61.119L73.378,61.116L73.433,61.114L73.488,61.111L73.543,61.11L73.598,61.108L73.654,61.107L73.709,61.106L73.764,61.105L73.82,61.105L73.875,61.105ZM73.802,67.203L73.784,67.203L73.767,67.204L73.749,67.204L73.732,67.205L73.714,67.205L73.697,67.206L73.68,67.207L73.662,67.208L73.645,67.209L73.628,67.21L73.611,67.211L73.594,67.212L73.577,67.214L73.561,67.215L73.544,67.217L73.527,67.218L73.511,67.22L73.494,67.222L73.478,67.224L73.461,67.226L73.445,67.228L73.429,67.231L73.412,67.233L73.396,67.235L73.38,67.238L73.364,67.241L73.348,67.243L73.332,67.246L73.316,67.249L73.301,67.252L73.285,67.255L73.269,67.258L73.253,67.262L73.238,67.265L73.222,67.269L73.206,67.272L73.191,67.276L73.176,67.279L73.16,67.283L73.145,67.287L73.129,67.291L73.114,67.295L73.099,67.299L73.084,67.304L73.069,67.308L73.054,67.312L73.039,67.317L73.024,67.321L73.009,67.326L72.994,67.331L72.979,67.336L72.964,67.341L72.95,67.346L72.935,67.351L72.92,67.356L72.906,67.361L72.892,67.366L72.877,67.372L72.862,67.377L72.848,67.383L72.834,67.389L72.82,67.394L72.805,67.4L72.791,67.406L72.777,67.412L72.763,67.418L72.749,67.424L72.735,67.43L72.721,67.437L72.707,67.443L72.693,67.45L72.679,67.456L72.666,67.463L72.652,67.469L72.638,67.476L72.625,67.483L72.611,67.49L72.598,67.497L72.584,67.504L72.571,67.511L72.557,67.519L72.544,67.526L72.531,67.533L72.518,67.54L72.504,67.548L72.491,67.556L72.478,67.563L72.465,67.571L72.453,67.579L72.44,67.587L72.427,67.595L72.414,67.602L72.401,67.611L72.389,67.619L72.376,67.627L72.364,67.635L72.351,67.644L72.339,67.652L72.327,67.661L72.314,67.669L72.302,67.678L72.29,67.687L72.278,67.695L72.266,67.704L72.254,67.713L72.242,67.722L72.23,67.731L72.218,67.74L72.207,67.749L72.195,67.758L72.184,67.767L72.172,67.777L72.16,67.786L72.149,67.796L72.138,67.805L72.126,67.815L72.115,67.824L72.104,67.834L72.093,67.844L72.083,67.853L72.072,67.863L72.061,67.873L72.05,67.883L72.039,67.893L72.029,67.903L72.018,67.913L72.007,67.923L71.998,67.933L71.987,67.943L71.977,67.954L71.967,67.964L71.956,67.975L71.947,67.985L71.937,67.995L71.927,68.006L71.917,68.016L71.907,68.027L71.898,68.037L71.888,68.048L71.879,68.058L71.869,68.07L71.86,68.081L71.851,68.091L71.842,68.102L71.833,68.113L71.824,68.124L71.815,68.135L71.806,68.146L71.797,68.157L71.789,68.168L71.781,68.178L71.772,68.19L71.763,68.202L71.755,68.212L71.747,68.224L71.738,68.235L71.731,68.246L71.723,68.257L71.714,68.269L71.707,68.28L71.699,68.291L71.691,68.303L71.684,68.314L71.676,68.326L71.669,68.338L71.662,68.349L71.654,68.361L71.647,68.372L71.64,68.383L71.633,68.395L71.626,68.407L71.619,68.418L71.613,68.43L71.606,68.442L71.599,68.453L71.593,68.465L71.586,68.477L71.58,68.489L71.574,68.501L71.568,68.512L71.562,68.524L71.555,68.536L71.549,68.548L71.544,68.56L71.538,68.571L71.532,68.583L71.527,68.595L71.521,68.607L71.516,68.62L71.511,68.631L71.505,68.643L71.5,68.656L71.495,68.667L71.49,68.679L71.485,68.691L71.48,68.703L71.475,68.716L71.471,68.728L71.466,68.74L71.462,68.752L71.457,68.764L71.453,68.777L71.449,68.788L71.444,68.801L71.44,68.813L71.436,68.825L71.432,68.838L71.429,68.849L71.424,68.862L71.421,68.875L71.417,68.886L71.414,68.899L71.41,68.912L71.407,68.924L71.403,68.936L71.4,68.949L71.397,68.962L71.394,68.974L71.391,68.987L71.388,69L71.385,69.012L71.382,69.025L71.379,69.038L71.377,69.05L71.374,69.063L71.372,69.075L71.369,69.089L71.367,69.102L71.365,69.114L71.363,69.127L71.361,69.139L71.359,69.153L71.357,69.166L71.355,69.179L71.353,69.193L71.351,69.205L71.35,69.219L71.348,69.232L71.347,69.245L71.345,69.259L71.344,69.272L71.343,69.286L71.342,69.3L71.341,69.313L71.34,69.326L71.339,69.341L71.338,69.354L71.338,69.367L71.337,69.382L71.337,69.396L71.336,69.41L71.336,69.424L71.336,69.439L71.335,69.452L71.335,69.467L71.336,69.495L71.336,69.524L71.337,69.552L71.338,69.58L71.34,69.607L71.342,69.634L71.344,69.662L71.347,69.688L71.35,69.715L71.353,69.741L71.357,69.768L71.361,69.794L71.365,69.82L71.369,69.845L71.374,69.871L71.379,69.896L71.385,69.922L71.391,69.947L71.397,69.972L71.403,69.997L71.41,70.022L71.417,70.047L71.424,70.071L71.432,70.096L71.44,70.12L71.449,70.146L71.457,70.169L71.466,70.194L71.475,70.218L71.485,70.242L71.495,70.267L71.505,70.291L71.516,70.314L71.527,70.339L71.538,70.363L71.549,70.386L71.562,70.41L71.574,70.433L71.587,70.457L71.599,70.481L71.613,70.504L71.626,70.527L71.64,70.55L71.654,70.573L71.669,70.596L71.684,70.619L71.699,70.643L71.715,70.665L71.731,70.688L71.747,70.71L71.763,70.732L71.78,70.755L71.797,70.777L71.815,70.799L71.833,70.821L71.851,70.843L71.87,70.864L71.888,70.885L71.908,70.907L71.927,70.928L71.947,70.949L71.967,70.97L71.987,70.99L72.007,71.01L72.029,71.031L72.05,71.051L72.072,71.071L72.093,71.09L72.115,71.109L72.138,71.129L72.16,71.147L72.184,71.166L72.207,71.185L72.23,71.203L72.254,71.221L72.278,71.239L72.302,71.256L72.327,71.273L72.351,71.29L72.376,71.307L72.401,71.323L72.427,71.339L72.453,71.355L72.478,71.37L72.504,71.386L72.531,71.401L72.557,71.415L72.584,71.43L72.611,71.444L72.638,71.457L72.666,71.471L72.693,71.484L72.721,71.497L72.749,71.51L72.777,71.522L72.805,71.534L72.833,71.545L72.863,71.556L72.892,71.567L72.92,71.578L72.95,71.588L72.979,71.598L73.009,71.608L73.039,71.617L73.069,71.626L73.099,71.634L73.129,71.643L73.16,71.65L73.191,71.658L73.222,71.665L73.253,71.672L73.284,71.678L73.316,71.685L73.348,71.69L73.38,71.696L73.412,71.701L73.445,71.705L73.478,71.71L73.511,71.714L73.544,71.717L73.578,71.72L73.611,71.723L73.645,71.725L73.68,71.727L73.714,71.729L73.749,71.73L73.784,71.73L73.82,71.731L73.837,71.731L73.855,71.73L73.873,71.73L73.89,71.73L73.908,71.729L73.925,71.729L73.943,71.728L73.96,71.727L73.977,71.726L73.994,71.725L74.011,71.724L74.029,71.723L74.045,71.722L74.062,71.72L74.079,71.719L74.096,71.717L74.112,71.715L74.129,71.714L74.145,71.712L74.162,71.71L74.178,71.708L74.194,71.705L74.211,71.703L74.227,71.701L74.243,71.698L74.259,71.696L74.276,71.693L74.292,71.69L74.307,71.688L74.323,71.685L74.339,71.682L74.355,71.678L74.371,71.675L74.386,71.672L74.402,71.669L74.418,71.665L74.433,71.662L74.448,71.658L74.464,71.654L74.479,71.65L74.495,71.647L74.51,71.643L74.525,71.639L74.54,71.634L74.556,71.63L74.571,71.626L74.586,71.621L74.601,71.617L74.616,71.612L74.631,71.608L74.645,71.603L74.66,71.598L74.675,71.593L74.69,71.588L74.704,71.583L74.719,71.578L74.734,71.573L74.748,71.567L74.763,71.562L74.777,71.556L74.791,71.551L74.806,71.545L74.82,71.539L74.834,71.534L74.848,71.528L74.863,71.522L74.876,71.516L74.89,71.51L74.905,71.503L74.919,71.497L74.933,71.491L74.947,71.484L74.96,71.478L74.974,71.471L74.987,71.464L75.001,71.457L75.015,71.451L75.028,71.444L75.042,71.437L75.055,71.43L75.069,71.423L75.082,71.415L75.096,71.408L75.109,71.401L75.122,71.393L75.135,71.386L75.148,71.378L75.161,71.37L75.174,71.363L75.187,71.355L75.2,71.347L75.213,71.339L75.225,71.331L75.238,71.323L75.251,71.315L75.263,71.307L75.276,71.298L75.288,71.29L75.301,71.282L75.313,71.273L75.325,71.265L75.338,71.256L75.35,71.247L75.362,71.239L75.373,71.23L75.386,71.221L75.398,71.212L75.409,71.203L75.421,71.194L75.433,71.185L75.444,71.176L75.456,71.166L75.468,71.157L75.479,71.147L75.49,71.138L75.502,71.129L75.513,71.119L75.524,71.109L75.535,71.1L75.546,71.09L75.557,71.081L75.568,71.071L75.579,71.061L75.59,71.051L75.6,71.041L75.61,71.031L75.622,71.021L75.632,71.01L75.642,71.001L75.652,70.99L75.663,70.98L75.673,70.97L75.683,70.959L75.693,70.949L75.703,70.939L75.713,70.928L75.722,70.918L75.732,70.907L75.742,70.896L75.751,70.885L75.761,70.875L75.77,70.864L75.78,70.853L75.788,70.843L75.797,70.832L75.807,70.821L75.816,70.81L75.825,70.799L75.833,70.788L75.842,70.777L75.851,70.766L75.859,70.755L75.868,70.744L75.877,70.732L75.884,70.722L75.893,70.71L75.901,70.699L75.909,70.688L75.917,70.676L75.925,70.665L75.933,70.654L75.94,70.643L75.948,70.631L75.956,70.619L75.963,70.608L75.971,70.596L75.978,70.585L75.985,70.573L75.992,70.562L75.999,70.55L76.006,70.539L76.013,70.527L76.02,70.516L76.027,70.504L76.034,70.492L76.04,70.481L76.046,70.469L76.053,70.457L76.059,70.445L76.066,70.433L76.072,70.422L76.078,70.41L76.084,70.397L76.09,70.386L76.096,70.374L76.101,70.363L76.107,70.35L76.113,70.339L76.118,70.327L76.124,70.314L76.129,70.303L76.134,70.291L76.139,70.278L76.144,70.267L76.149,70.254L76.154,70.242L76.159,70.231L76.164,70.218L76.169,70.206L76.173,70.194L76.178,70.182L76.182,70.169L76.187,70.157L76.191,70.146L76.195,70.133L76.199,70.12L76.203,70.108L76.207,70.096L76.211,70.085L76.215,70.071L76.219,70.059L76.222,70.047L76.226,70.035L76.23,70.022L76.233,70.01L76.236,69.997L76.24,69.984L76.243,69.972L76.246,69.96L76.249,69.947L76.252,69.934L76.254,69.922L76.257,69.909L76.26,69.896L76.263,69.884L76.265,69.871L76.268,69.859L76.27,69.845L76.272,69.832L76.275,69.82L76.277,69.807L76.279,69.794L76.281,69.781L76.283,69.768L76.285,69.755L76.286,69.741L76.288,69.728L76.29,69.715L76.291,69.702L76.293,69.688L76.294,69.675L76.295,69.662L76.296,69.648L76.298,69.634L76.299,69.621L76.299,69.607L76.3,69.593L76.301,69.58L76.302,69.566L76.302,69.552L76.303,69.538L76.303,69.524L76.304,69.51L76.304,69.495L76.304,69.482L76.304,69.467L76.304,69.452L76.304,69.439L76.304,69.424L76.303,69.41L76.303,69.396L76.302,69.382L76.302,69.367L76.301,69.354L76.3,69.341L76.299,69.326L76.299,69.313L76.298,69.3L76.296,69.286L76.295,69.272L76.294,69.259L76.293,69.245L76.291,69.232L76.29,69.219L76.288,69.205L76.286,69.193L76.285,69.179L76.283,69.166L76.281,69.153L76.279,69.139L76.277,69.127L76.275,69.114L76.272,69.102L76.27,69.089L76.268,69.075L76.265,69.063L76.263,69.05L76.26,69.038L76.257,69.025L76.254,69.012L76.252,69L76.249,68.987L76.246,68.973L76.243,68.962L76.24,68.95L76.236,68.936L76.233,68.924L76.23,68.912L76.226,68.899L76.222,68.886L76.219,68.875L76.215,68.862L76.211,68.849L76.207,68.838L76.203,68.825L76.199,68.813L76.195,68.801L76.191,68.788L76.187,68.777L76.182,68.764L76.178,68.752L76.173,68.74L76.169,68.728L76.164,68.716L76.159,68.703L76.154,68.691L76.149,68.679L76.144,68.667L76.139,68.656L76.134,68.643L76.129,68.631L76.124,68.62L76.118,68.607L76.113,68.595L76.107,68.583L76.101,68.571L76.096,68.56L76.09,68.548L76.084,68.536L76.078,68.524L76.072,68.512L76.066,68.501L76.059,68.489L76.053,68.477L76.047,68.465L76.04,68.453L76.034,68.442L76.027,68.43L76.02,68.418L76.014,68.407L76.006,68.395L75.999,68.383L75.992,68.372L75.985,68.361L75.978,68.349L75.971,68.338L75.963,68.326L75.956,68.314L75.948,68.303L75.94,68.291L75.933,68.28L75.925,68.269L75.917,68.257L75.909,68.246L75.901,68.235L75.893,68.224L75.884,68.212L75.877,68.202L75.868,68.19L75.859,68.178L75.851,68.168L75.842,68.157L75.833,68.146L75.825,68.135L75.816,68.124L75.807,68.113L75.797,68.102L75.788,68.091L75.78,68.081L75.77,68.07L75.76,68.058L75.751,68.048L75.742,68.037L75.732,68.027L75.722,68.016L75.713,68.006L75.703,67.995L75.693,67.985L75.683,67.975L75.673,67.964L75.663,67.954L75.652,67.943L75.642,67.933L75.632,67.923L75.622,67.913L75.611,67.903L75.6,67.893L75.59,67.883L75.579,67.873L75.568,67.863L75.557,67.853L75.546,67.844L75.535,67.834L75.524,67.824L75.513,67.815L75.502,67.805L75.49,67.796L75.479,67.786L75.468,67.777L75.456,67.767L75.444,67.758L75.433,67.749L75.421,67.74L75.409,67.731L75.398,67.722L75.386,67.713L75.373,67.704L75.362,67.695L75.35,67.687L75.337,67.678L75.325,67.669L75.313,67.661L75.301,67.652L75.288,67.644L75.276,67.635L75.264,67.627L75.251,67.619L75.238,67.611L75.225,67.602L75.212,67.595L75.2,67.587L75.187,67.579L75.174,67.571L75.161,67.563L75.148,67.556L75.135,67.548L75.122,67.54L75.108,67.533L75.096,67.526L75.082,67.519L75.069,67.511L75.055,67.504L75.042,67.497L75.028,67.49L75.015,67.483L75.001,67.476L74.988,67.469L74.974,67.463L74.96,67.456L74.947,67.45L74.932,67.443L74.919,67.437L74.905,67.43L74.89,67.424L74.877,67.418L74.863,67.412L74.848,67.406L74.834,67.4L74.82,67.394L74.806,67.389L74.792,67.383L74.777,67.377L74.762,67.372L74.748,67.366L74.734,67.361L74.719,67.356L74.704,67.351L74.69,67.346L74.675,67.341L74.66,67.336L74.645,67.331L74.631,67.326L74.616,67.321L74.601,67.317L74.586,67.312L74.571,67.308L74.556,67.304L74.54,67.299L74.525,67.295L74.51,67.291L74.495,67.287L74.479,67.283L74.464,67.279L74.448,67.276L74.433,67.272L74.418,67.269L74.402,67.265L74.386,67.262L74.371,67.258L74.355,67.255L74.339,67.252L74.323,67.249L74.307,67.246L74.291,67.243L74.276,67.241L74.259,67.238L74.243,67.235L74.227,67.233L74.211,67.231L74.195,67.228L74.178,67.226L74.162,67.224L74.145,67.222L74.129,67.22L74.112,67.218L74.095,67.217L74.079,67.215L74.062,67.214L74.045,67.212L74.028,67.211L74.011,67.21L73.994,67.209L73.977,67.208L73.96,67.207L73.943,67.206L73.925,67.205L73.908,67.205L73.89,67.204L73.873,67.204L73.855,67.203L73.838,67.203L73.82,67.203L73.802,67.203Z" style="fill:white;"/>
            </g>
            <g id="Neck" transform="matrix(1,0,0,1.30292,6.21725e-15,-34.6942)">
                <rect x="92.395" y="110.802" width="18.347" height="7.449" style="fill:white;"/>
                <rect x="92.395" y="110.802" width="18.347" height="7.449" style="fill:white;"/>
            </g>
        </g>
        <g id="Body">
            <g id="Cubey-Thingy" serif:id="Cubey Thingy" transform="matrix(0.503008,-0.503745,0.801232,0.80006,-104.847,88.1143)">
                <rect x="88.676" y="182.842" width="30.33" height="19.097" style="fill:white;"/>
                <path d="M119.006,201.939L88.676,201.939L88.676,182.842L119.006,182.842L119.006,201.939ZM97.242,188.228L97.242,196.553L110.44,196.553L110.44,188.228L97.242,188.228Z" style="fill:white;"/>
            </g>
            <g id="Left-Arm---Hand" serif:id="Left Arm + Hand">
                <g id="Left-Arm" serif:id="Left Arm" transform="matrix(0.685742,-0.75027,1.01998,0.932256,-178.694,84.2709)">
                    <rect x="52.646" y="191.652" width="39.749" height="13.735" style="fill:white;"/>
                    <path d="M92.395,205.387L52.646,205.387L52.646,191.652L92.395,191.652L92.395,205.387ZM58.645,196.065L58.645,200.974L86.396,200.974L86.396,196.065L58.645,196.065Z" style="fill:white;"/>
                </g>
                <g id="Left-Hand" serif:id="Left Hand">
                    <g transform="matrix(0.361374,0.361078,-1.67654,1.67792,310.129,-92.8697)">
                        <rect x="55.641" y="153.99" width="23.658" height="2.488" style="fill:white;"/>
                        <rect x="55.641" y="153.99" width="23.658" height="2.488" style="fill:white;"/>
                    </g>
                    <g transform="matrix(0.729092,-0.729824,1.67807,1.67639,-226.975,-31.8602)">
                        <rect x="55.641" y="153.99" width="23.658" height="2.488" style="fill:white;"/>
                        <rect x="55.641" y="153.99" width="23.658" height="2.488" style="fill:white;"/>
                    </g>
                </g>
            </g>
            <g id="Right-Arm---Hand" serif:id="Right Arm + Hand">
                <g id="Left-hand" serif:id="Left hand">
                    <g transform="matrix(-0.361374,0.361078,1.67654,1.67792,-108.411,-92.9915)">
                        <rect x="55.641" y="153.99" width="23.658" height="2.488" style="fill:white;"/>
                        <rect x="55.641" y="153.99" width="23.658" height="2.488" style="fill:white;"/>
                    </g>
                    <g transform="matrix(-0.729092,-0.729824,-1.67807,1.67639,428.692,-31.9821)">
                        <rect x="55.641" y="153.99" width="23.658" height="2.488" style="fill:white;"/>
                        <rect x="55.641" y="153.99" width="23.658" height="2.488" style="fill:white;"/>
                    </g>
                </g>
                <g id="Right-Arm" serif:id="Right Arm" transform="matrix(0.736256,0.721353,-0.967063,0.987042,267.703,-33.1299)">
                    <rect x="52.646" y="191.652" width="39.749" height="13.735" style="fill:white;"/>
                    <path d="M92.395,191.652L92.395,205.387L52.646,205.387L52.646,191.652L92.395,191.652ZM58.562,200.974L86.479,200.974L86.479,196.065L58.562,196.065L58.562,200.974Z" style="fill:white;"/>
                </g>
            </g>
            <g id="Body-rect-ish" serif:id="Body rect-ish">
                <path d="M27.359,118.251L175.904,118.251L175.904,236.036L137.093,236.245L143.869,219.726L159.94,219.508C159.94,219.508 159.304,134.933 159.304,135C159.304,135.067 44.012,135 44.012,135L43.831,220.001L58.428,219.892L66.97,236.245L27.359,236.229L27.359,118.251Z" style="fill:white;"/>
                <path d="M175.904,236.036L137.093,236.245L143.869,219.726L159.94,219.508L159.622,177.229L159.403,148.176L159.304,135L159.302,135L159.298,135.001L159.283,135.002L159.22,135.003L159.117,135.004L158.973,135.006L158.79,135.007L158.567,135.009L158.009,135.011L157.302,135.013L156.454,135.015L155.468,135.017L154.35,135.019L153.105,135.021L151.739,135.022L148.664,135.025L145.167,135.027L141.289,135.028L137.074,135.029L132.564,135.03L127.8,135.03L122.825,135.029L117.681,135.029L112.41,135.028L101.658,135.025L90.905,135.022L80.491,135.018L70.752,135.014L62.026,135.009L48.966,135.003L44.012,135L43.831,220.001L58.428,219.892L66.97,236.245L27.359,236.229L27.359,118.251L175.904,118.251L175.904,236.036ZM33.457,124.349L33.457,230.134L56.903,230.143L54.748,226.017L43.877,226.099L42.51,225.954L41.211,225.507L40.045,224.781L39.071,223.812L38.339,222.65L37.885,221.353L37.733,219.988L37.914,134.987L38.07,133.632L38.522,132.345L39.25,131.191L40.216,130.228L41.372,129.503L42.66,129.054L44.015,128.902L48.969,128.905L62.029,128.912L70.755,128.916L80.493,128.92L90.908,128.924L101.66,128.927L112.411,128.93L117.682,128.931L122.825,128.932L127.8,128.932L132.563,128.932L137.073,128.931L141.287,128.93L145.164,128.929L148.66,128.927L151.733,128.925L153.098,128.923L154.341,128.921L155.457,128.92L156.44,128.918L157.285,128.916L157.985,128.913L158.536,128.911L158.749,128.91L158.92,128.908L159.044,128.907L159.104,128.906L159.061,128.907L158.983,128.911L160.382,128.998L161.727,129.404L162.943,130.107L163.966,131.07L164.742,132.242L165.229,133.56L165.401,134.954L165.501,148.13L165.719,177.183L166.038,219.462L165.896,220.815L165.458,222.103L164.746,223.261L163.794,224.233L162.651,224.97L161.372,225.435L160.023,225.605L147.981,225.769L146.205,230.098L169.806,229.971L169.806,124.349L33.457,124.349ZM158.846,128.918L158.134,128.989L157.594,129.147L158.975,128.911L158.846,128.918Z" style="fill:white;"/>
            </g>
        </g>
    </g>
</svg>
